<?xml version="1.0" standalone="no"?>
<!DOCTYPE svg PUBLIC "-//W3C//DTD SVG 20010904//EN"
 "http://www.w3.org/TR/2001/REC-SVG-20010904/DTD/svg10.dtd">
<svg version="1.0" xmlns="http://www.w3.org/2000/svg"
 width="659.000000pt" height="760.000000pt" viewBox="0 0 659.000000 760.000000"
 preserveAspectRatio="xMidYMid meet">

<g transform="translate(0.000000,760.000000) scale(0.100000,-0.100000)"
fill="#000000" stroke="none">
<path d="M3773 6355 c34 -30 27 -31 -44 -7 -69 24 -254 20 -245 -5 4 -10 1
-13 -12 -9 -45 15 -120 7 -192 -20 -41 -15 -79 -31 -84 -36 -6 -4 -42 -8 -80
-8 -47 -1 -78 -6 -90 -15 -19 -14 -17 -15 20 -17 l39 -1 -45 -7 -45 -7 40 -2
40 -2 -34 -14 c-18 -8 -44 -15 -58 -15 -29 0 -121 -74 -134 -108 -5 -12 -29
-36 -54 -54 -25 -17 -41 -34 -35 -38 5 -3 -12 -38 -38 -78 -34 -53 -54 -74
-74 -79 -33 -7 -62 -37 -55 -57 3 -7 -6 -24 -20 -37 -22 -20 -53 -76 -53 -94
0 -3 9 -5 21 -5 18 0 11 -14 -46 -96 l-67 -96 16 -63 c9 -35 16 -91 16 -124 0
-33 4 -71 10 -85 8 -22 5 -29 -26 -55 -33 -27 -35 -30 -17 -40 10 -6 12 -11 6
-11 -9 0 -10 -7 -3 -25 7 -18 6 -25 -3 -25 -6 0 -4 -5 6 -11 9 -6 15 -14 12
-20 -4 -5 2 -9 11 -9 16 0 16 -1 1 -18 -15 -17 -15 -19 3 -32 10 -7 17 -17 14
-21 -2 -4 0 -10 6 -14 6 -4 8 -11 4 -16 -3 -6 1 -16 9 -22 9 -7 24 -55 35
-107 24 -110 41 -162 65 -188 9 -10 17 -24 17 -30 0 -6 6 -17 13 -24 6 -7 23
-35 37 -62 42 -82 44 -86 57 -86 7 0 13 -4 13 -9 0 -4 11 -21 25 -37 40 -47
65 -78 78 -96 7 -9 19 -18 26 -20 8 -2 26 -15 39 -30 13 -16 28 -28 33 -28 10
0 12 52 3 127 l-7 53 -113 89 c-62 50 -121 102 -130 117 -25 37 -83 213 -84
251 -1 109 48 193 112 193 78 0 123 -27 215 -127 48 -52 89 -90 91 -84 2 6 13
11 23 11 15 0 28 -17 51 -65 26 -57 33 -65 52 -59 11 4 21 7 22 8 0 0 -7 91
-18 201 l-18 200 25 81 c26 86 72 159 108 173 12 5 36 14 52 20 17 7 36 21 43
32 16 26 29 125 15 116 -8 -5 -39 140 -31 148 2 2 122 44 266 94 225 78 273
91 328 91 51 0 65 -4 73 -18 20 -38 -26 -61 -127 -63 l-67 -2 50 -7 c116 -18
213 -5 222 31 6 22 16 24 44 9 24 -13 25 -47 2 -73 -18 -19 -17 -19 22 1 57
29 89 65 80 92 -6 18 -4 21 12 17 10 -3 35 -9 56 -13 42 -7 51 -18 132 -166
25 -46 57 -94 71 -108 l24 -25 0 32 c0 17 6 34 13 37 9 3 8 8 -4 18 -9 7 -14
19 -11 26 2 7 -19 23 -55 39 l-58 26 36 9 c21 5 47 20 59 33 29 31 55 138 40
165 -6 11 -8 25 -5 30 11 18 -103 176 -160 219 -30 23 -55 38 -55 35 0 -4 -12
3 -26 17 l-27 24 13 -25 c10 -20 5 -18 -28 13 -22 22 -41 34 -43 29 -2 -6 -75
24 -161 66 -86 43 -151 71 -145 63 12 -15 12 -15 -38 5 -8 3 -15 1 -15 -5 0
-7 -21 -1 -50 14 -62 31 -73 31 -37 0z"/>
</g>
</svg>
